<svg
	xmlns="http://www.w3.org/2000/svg"
	xmlns:xlink="http://www.w3.org/1999/xlink" fill="none">
	<defs>
		<symbol viewBox='0 0 40 40' id='CSV-Default'>
			<path d="M7.75 4C7.75 2.20508 9.20508 0.75 11 0.75H27C27.1212 0.75 27.2375 0.798159 27.3232 0.883885L38.1161 11.6768C38.2018 11.7625 38.25 11.8788 38.25 12V36C38.25 37.7949 36.7949 39.25 35 39.25H11C9.20507 39.25 7.75 37.7949 7.75 36V4Z" stroke="#D0D5DD" stroke-width="1.5"/>
			<path d="M27 0.5V8C27 10.2091 28.7909 12 31 12H38.5" stroke="#D0D5DD" stroke-width="1.5"/>
			<rect x="1" y="18" width="28" height="16" rx="2" fill="#099250"/>
			<path d="M11.2726 25.2734H9.71724C9.68883 25.0722 9.63083 24.8935 9.54324 24.7372C9.45564 24.5786 9.34319 24.4437 9.20588 24.3324C9.06857 24.2211 8.90995 24.1359 8.73002 24.0767C8.55247 24.0175 8.35952 23.9879 8.15119 23.9879C7.77477 23.9879 7.44688 24.0814 7.16752 24.2685C6.88817 24.4531 6.67155 24.723 6.51767 25.0781C6.36378 25.4309 6.28684 25.8594 6.28684 26.3636C6.28684 26.8821 6.36378 27.3177 6.51767 27.6705C6.67392 28.0232 6.89172 28.2895 7.17108 28.4695C7.45043 28.6494 7.77359 28.7393 8.14054 28.7393C8.3465 28.7393 8.53708 28.7121 8.71227 28.6577C8.88983 28.6032 9.04726 28.5239 9.18457 28.4197C9.32188 28.3132 9.43552 28.1842 9.52548 28.0327C9.61781 27.8812 9.68173 27.7083 9.71724 27.5142L11.2726 27.5213C11.2324 27.8551 11.1318 28.1771 10.9708 28.4872C10.8122 28.795 10.5979 29.0708 10.328 29.3146C10.0605 29.5561 9.74092 29.7479 9.36923 29.8899C8.99991 30.0296 8.58206 30.0994 8.11568 30.0994C7.467 30.0994 6.88699 29.9527 6.37562 29.6591C5.86663 29.3655 5.46416 28.9406 5.16824 28.3842C4.87467 27.8279 4.72789 27.1544 4.72789 26.3636C4.72789 25.5705 4.87704 24.8958 5.17534 24.3395C5.47363 23.7831 5.87846 23.3594 6.38983 23.0682C6.90119 22.7746 7.47647 22.6278 8.11568 22.6278C8.53708 22.6278 8.9277 22.687 9.28755 22.8054C9.64977 22.9238 9.97056 23.0966 10.2499 23.3239C10.5293 23.5488 10.7565 23.8246 10.9317 24.1513C11.1093 24.478 11.2229 24.852 11.2726 25.2734ZM16.3206 24.8189C16.2922 24.5324 16.1702 24.3099 15.9548 24.1513C15.7394 23.9927 15.447 23.9134 15.0777 23.9134C14.8267 23.9134 14.6148 23.9489 14.442 24.0199C14.2692 24.0885 14.1366 24.1844 14.0443 24.3075C13.9543 24.4306 13.9094 24.5703 13.9094 24.7266C13.9046 24.8568 13.9318 24.9704 13.991 25.0675C14.0526 25.1645 14.1366 25.2486 14.2432 25.3196C14.3497 25.3883 14.4728 25.4486 14.6125 25.5007C14.7522 25.5504 14.9013 25.593 15.0599 25.6286L15.7133 25.7848C16.0306 25.8558 16.3218 25.9505 16.5869 26.0689C16.8521 26.1873 17.0817 26.3329 17.2758 26.5057C17.47 26.6785 17.6203 26.8821 17.7268 27.1165C17.8357 27.3509 17.8914 27.6196 17.8937 27.9226C17.8914 28.3677 17.7777 28.7536 17.5528 29.0803C17.3303 29.4046 17.0083 29.6567 16.5869 29.8366C16.1679 30.0142 15.6624 30.103 15.0706 30.103C14.4835 30.103 13.9721 30.013 13.5365 29.8331C13.1032 29.6532 12.7647 29.3868 12.5209 29.0341C12.2794 28.679 12.1527 28.2398 12.1409 27.7166H13.6288C13.6454 27.9605 13.7152 28.1641 13.8383 28.3274C13.9638 28.4884 14.1307 28.6103 14.339 28.6932C14.5497 28.7737 14.7877 28.8139 15.0528 28.8139C15.3132 28.8139 15.5393 28.776 15.7311 28.7003C15.9252 28.6245 16.0756 28.5192 16.1821 28.3842C16.2886 28.2493 16.3419 28.0942 16.3419 27.919C16.3419 27.7557 16.2934 27.6184 16.1963 27.5071C16.1016 27.3958 15.9619 27.3011 15.7773 27.223C15.595 27.1449 15.3712 27.0739 15.1061 27.0099L14.3142 26.8111C13.701 26.6619 13.2169 26.4287 12.8618 26.1115C12.5067 25.7943 12.3303 25.367 12.3327 24.8295C12.3303 24.3892 12.4475 24.0045 12.6842 23.6754C12.9233 23.3464 13.2512 23.0895 13.6679 22.9048C14.0845 22.7202 14.558 22.6278 15.0883 22.6278C15.6281 22.6278 16.0992 22.7202 16.5017 22.9048C16.9065 23.0895 17.2214 23.3464 17.4463 23.6754C17.6712 24.0045 17.7872 24.3857 17.7943 24.8189H16.3206ZM20.2419 22.7273L21.9997 28.2528H22.0672L23.8286 22.7273H25.5331L23.026 30H21.0445L18.5338 22.7273H20.2419Z" fill="white"/>
		</symbol>
		<symbol viewBox='0 0 40 40' id='JPEG-Default'>
			<path d="M7.75 4C7.75 2.20508 9.20508 0.75 11 0.75H27C27.1212 0.75 27.2375 0.798159 27.3232 0.883885L38.1161 11.6768C38.2018 11.7625 38.25 11.8788 38.25 12V36C38.25 37.7949 36.7949 39.25 35 39.25H11C9.20507 39.25 7.75 37.7949 7.75 36V4Z" stroke="#D0D5DD" stroke-width="1.5"/>
			<path d="M27 0.5V8C27 10.2091 28.7909 12 31 12H38.5" stroke="#D0D5DD" stroke-width="1.5"/>
			<rect x="1" y="18" width="32" height="16" rx="2" fill="#1570EF"/>
			<path d="M7.58993 22.7273H9.10982V27.7983C9.10982 28.267 9.00447 28.6742 8.79377 29.0199C8.58543 29.3655 8.29542 29.6319 7.92374 29.8189C7.55205 30.0059 7.12 30.0994 6.62757 30.0994C6.1896 30.0994 5.79187 30.0225 5.43439 29.8686C5.07928 29.7124 4.79756 29.4756 4.58922 29.1584C4.38089 28.8388 4.27791 28.4375 4.28027 27.9545H5.81081C5.81555 28.1463 5.85461 28.3108 5.928 28.4482C6.00376 28.5831 6.10674 28.6873 6.23695 28.7607C6.36953 28.8317 6.52578 28.8672 6.7057 28.8672C6.89509 28.8672 7.05489 28.8269 7.1851 28.7464C7.31768 28.6636 7.41829 28.5429 7.48695 28.3842C7.5556 28.2256 7.58993 28.0303 7.58993 27.7983V22.7273ZM10.3811 30V22.7273H13.2504C13.8021 22.7273 14.272 22.8326 14.6602 23.0433C15.0485 23.2517 15.3444 23.5417 15.548 23.9134C15.754 24.2827 15.857 24.7088 15.857 25.1918C15.857 25.6747 15.7528 26.1009 15.5445 26.4702C15.3361 26.8395 15.0343 27.1271 14.6389 27.3331C14.2459 27.5391 13.7701 27.642 13.2114 27.642H11.3825V26.4098H12.9628C13.2587 26.4098 13.5026 26.3589 13.6943 26.2571C13.8885 26.1529 14.0329 26.0097 14.1276 25.8274C14.2246 25.6428 14.2732 25.4309 14.2732 25.1918C14.2732 24.9503 14.2246 24.7396 14.1276 24.5597C14.0329 24.3774 13.8885 24.2365 13.6943 24.1371C13.5002 24.0353 13.254 23.9844 12.9557 23.9844H11.9188V30H10.3811ZM16.8557 30V22.7273H21.7563V23.995H18.3934V25.728H21.5042V26.9957H18.3934V28.7322H21.7705V30H16.8557ZM27.8012 25.0781C27.7515 24.9053 27.6817 24.7526 27.5917 24.62C27.5017 24.4851 27.3917 24.3714 27.2615 24.2791C27.1336 24.1844 26.9868 24.1122 26.8211 24.0625C26.6578 24.0128 26.4767 23.9879 26.2778 23.9879C25.9061 23.9879 25.5794 24.0803 25.2977 24.2649C25.0183 24.4496 24.8005 24.7183 24.6443 25.071C24.488 25.4214 24.4099 25.8499 24.4099 26.3565C24.4099 26.8632 24.4868 27.294 24.6407 27.6491C24.7946 28.0043 25.0124 28.2753 25.2941 28.4624C25.5758 28.647 25.9085 28.7393 26.292 28.7393C26.64 28.7393 26.9371 28.6778 27.1833 28.5547C27.4319 28.4292 27.6213 28.2528 27.7515 28.0256C27.8841 27.7983 27.9504 27.5296 27.9504 27.2195L28.2629 27.2656H26.3879V26.108H29.4312V27.0241C29.4312 27.6634 29.2963 28.2126 29.0264 28.6719C28.7565 29.1288 28.3848 29.4815 27.9113 29.7301C27.4378 29.9763 26.8957 30.0994 26.2849 30.0994C25.6031 30.0994 25.0041 29.9491 24.488 29.6484C23.9719 29.3454 23.5695 28.9157 23.2806 28.3594C22.9942 27.8007 22.8509 27.1378 22.8509 26.3707C22.8509 25.7812 22.9362 25.2557 23.1066 24.794C23.2794 24.33 23.5209 23.937 23.8311 23.6151C24.1412 23.2931 24.5022 23.0481 24.9142 22.88C25.3261 22.7119 25.7723 22.6278 26.2529 22.6278C26.6649 22.6278 27.0484 22.6882 27.4035 22.8089C27.7586 22.9273 28.0735 23.0954 28.3481 23.3132C28.6251 23.531 28.8512 23.7902 29.0264 24.0909C29.2016 24.3892 29.314 24.7183 29.3637 25.0781H27.8012Z" fill="white"/>
		</symbol>
		<symbol viewBox='0 0 40 40' id='JPG-Default'>
			<path d="M7.75 4C7.75 2.20508 9.20508 0.75 11 0.75H27C27.1212 0.75 27.2375 0.798159 27.3232 0.883885L38.1161 11.6768C38.2018 11.7625 38.25 11.8788 38.25 12V36C38.25 37.7949 36.7949 39.25 35 39.25H11C9.20507 39.25 7.75 37.7949 7.75 36V4Z" stroke="#D0D5DD" stroke-width="1.5"/>
			<path d="M27 0.5V8C27 10.2091 28.7909 12 31 12H38.5" stroke="#D0D5DD" stroke-width="1.5"/>
			<rect x="1" y="18" width="26" height="16" rx="2" fill="#1570EF"/>
			<path d="M7.65146 22.7273H9.17134V27.7983C9.17134 28.267 9.06599 28.6742 8.85529 29.0199C8.64696 29.3655 8.35695 29.6319 7.98526 29.8189C7.61358 30.0059 7.18152 30.0994 6.6891 30.0994C6.25112 30.0994 5.8534 30.0225 5.49592 29.8686C5.1408 29.7124 4.85908 29.4756 4.65075 29.1584C4.44241 28.8388 4.33943 28.4375 4.3418 27.9545H5.87234C5.87707 28.1463 5.91613 28.3108 5.98952 28.4482C6.06528 28.5831 6.16826 28.6873 6.29847 28.7607C6.43105 28.8317 6.5873 28.8672 6.76722 28.8672C6.95662 28.8672 7.11642 28.8269 7.24663 28.7464C7.3792 28.6636 7.47982 28.5429 7.54847 28.3842C7.61713 28.2256 7.65146 28.0303 7.65146 27.7983V22.7273ZM10.4426 30V22.7273H13.312C13.8636 22.7273 14.3335 22.8326 14.7218 23.0433C15.11 23.2517 15.406 23.5417 15.6096 23.9134C15.8155 24.2827 15.9185 24.7088 15.9185 25.1918C15.9185 25.6747 15.8143 26.1009 15.606 26.4702C15.3977 26.8395 15.0958 27.1271 14.7005 27.3331C14.3075 27.5391 13.8316 27.642 13.2729 27.642H11.4441V26.4098H13.0243C13.3203 26.4098 13.5641 26.3589 13.7559 26.2571C13.95 26.1529 14.0944 26.0097 14.1891 25.8274C14.2862 25.6428 14.3347 25.4309 14.3347 25.1918C14.3347 24.9503 14.2862 24.7396 14.1891 24.5597C14.0944 24.3774 13.95 24.2365 13.7559 24.1371C13.5617 24.0353 13.3155 23.9844 13.0172 23.9844H11.9803V30H10.4426ZM21.7397 25.0781C21.69 24.9053 21.6201 24.7526 21.5302 24.62C21.4402 24.4851 21.3301 24.3714 21.1999 24.2791C21.0721 24.1844 20.9253 24.1122 20.7596 24.0625C20.5962 24.0128 20.4151 23.9879 20.2163 23.9879C19.8446 23.9879 19.5179 24.0803 19.2362 24.2649C18.9568 24.4496 18.739 24.7183 18.5827 25.071C18.4265 25.4214 18.3484 25.8499 18.3484 26.3565C18.3484 26.8632 18.4253 27.294 18.5792 27.6491C18.7331 28.0043 18.9509 28.2753 19.2326 28.4624C19.5143 28.647 19.8469 28.7393 20.2305 28.7393C20.5785 28.7393 20.8756 28.6778 21.1218 28.5547C21.3704 28.4292 21.5598 28.2528 21.69 28.0256C21.8226 27.7983 21.8888 27.5296 21.8888 27.2195L22.2013 27.2656H20.3263V26.108H23.3697V27.0241C23.3697 27.6634 23.2347 28.2126 22.9648 28.6719C22.695 29.1288 22.3233 29.4815 21.8498 29.7301C21.3763 29.9763 20.8342 30.0994 20.2234 30.0994C19.5415 30.0994 18.9426 29.9491 18.4265 29.6484C17.9104 29.3454 17.5079 28.9157 17.2191 28.3594C16.9326 27.8007 16.7894 27.1378 16.7894 26.3707C16.7894 25.7812 16.8746 25.2557 17.0451 24.794C17.2179 24.33 17.4594 23.937 17.7695 23.6151C18.0797 23.2931 18.4407 23.0481 18.8526 22.88C19.2646 22.7119 19.7108 22.6278 20.1914 22.6278C20.6033 22.6278 20.9869 22.6882 21.342 22.8089C21.6971 22.9273 22.012 23.0954 22.2866 23.3132C22.5636 23.531 22.7897 23.7902 22.9648 24.0909C23.14 24.3892 23.2525 24.7183 23.3022 25.0781H21.7397Z" fill="white"/>
		</symbol>
		<symbol viewBox='0 0 40 40' id='MP3-Default'>
			<path d="M7.75 4C7.75 2.20508 9.20508 0.75 11 0.75H27C27.1212 0.75 27.2375 0.798159 27.3232 0.883885L38.1161 11.6768C38.2018 11.7625 38.25 11.8788 38.25 12V36C38.25 37.7949 36.7949 39.25 35 39.25H11C9.20507 39.25 7.75 37.7949 7.75 36V4Z" stroke="#D0D5DD" stroke-width="1.5"/>
			<path d="M27 0.5V8C27 10.2091 28.7909 12 31 12H38.5" stroke="#D0D5DD" stroke-width="1.5"/>
			<rect x="1" y="18" width="29" height="16" rx="2" fill="#DD2590"/>
			<path d="M5.0237 22.7273H6.92001L8.92285 27.6136H9.00808L11.0109 22.7273H12.9072V30H11.4157V25.2663H11.3554L9.47328 29.9645H8.45765L6.57555 25.2486H6.51518V30H5.0237V22.7273ZM14.1741 30V22.7273H17.0434C17.595 22.7273 18.065 22.8326 18.4532 23.0433C18.8415 23.2517 19.1374 23.5417 19.341 23.9134C19.547 24.2827 19.6499 24.7088 19.6499 25.1918C19.6499 25.6747 19.5458 26.1009 19.3374 26.4702C19.1291 26.8395 18.8273 27.1271 18.4319 27.3331C18.0389 27.5391 17.5631 27.642 17.0044 27.642H15.1755V26.4098H16.7558C17.0517 26.4098 17.2955 26.3589 17.4873 26.2571C17.6814 26.1529 17.8258 26.0097 17.9205 25.8274C18.0176 25.6428 18.0661 25.4309 18.0661 25.1918C18.0661 24.9503 18.0176 24.7396 17.9205 24.5597C17.8258 24.3774 17.6814 24.2365 17.4873 24.1371C17.2932 24.0353 17.047 23.9844 16.7487 23.9844H15.7117V30H14.1741ZM23.2943 30.0994C22.764 30.0994 22.2917 30.0083 21.8774 29.826C21.4655 29.6413 21.1399 29.388 20.9008 29.0661C20.6641 28.7417 20.5422 28.3677 20.5351 27.9439H22.0834C22.0928 28.1214 22.1508 28.2777 22.2574 28.4126C22.3663 28.5452 22.5107 28.6482 22.6906 28.7216C22.8705 28.795 23.0729 28.8317 23.2979 28.8317C23.5322 28.8317 23.7394 28.7902 23.9193 28.7074C24.0992 28.6245 24.2401 28.5097 24.3419 28.3629C24.4437 28.2161 24.4946 28.0469 24.4946 27.8551C24.4946 27.661 24.4401 27.4893 24.3312 27.3402C24.2247 27.1887 24.0708 27.0703 23.8696 26.9851C23.6707 26.8999 23.434 26.8572 23.1594 26.8572H22.4811V25.728H23.1594C23.3914 25.728 23.5961 25.6877 23.7737 25.6072C23.9536 25.5268 24.0933 25.4155 24.1927 25.2734C24.2922 25.129 24.3419 24.9609 24.3419 24.7692C24.3419 24.5869 24.2981 24.4271 24.2105 24.2898C24.1253 24.1501 24.0045 24.0412 23.8483 23.9631C23.6944 23.8849 23.5145 23.8459 23.3085 23.8459C23.1002 23.8459 22.9096 23.8838 22.7368 23.9595C22.564 24.0329 22.4255 24.1383 22.3213 24.2756C22.2171 24.4129 22.1615 24.5739 22.1544 24.7585H20.6807C20.6878 24.3395 20.8073 23.9702 21.0393 23.6506C21.2713 23.331 21.5838 23.0812 21.9768 22.9013C22.3722 22.719 22.8184 22.6278 23.3156 22.6278C23.8175 22.6278 24.2567 22.719 24.6331 22.9013C25.0095 23.0836 25.3019 23.3298 25.5102 23.6399C25.7209 23.9477 25.8251 24.2933 25.8227 24.6768C25.8251 25.084 25.6984 25.4238 25.4427 25.696C25.1894 25.9683 24.8592 26.1411 24.452 26.2145V26.2713C24.987 26.34 25.3942 26.5258 25.6736 26.8288C25.9553 27.1295 26.095 27.5059 26.0926 27.9581C26.095 28.3724 25.9754 28.7405 25.7339 29.0625C25.4948 29.3845 25.1646 29.6378 24.7432 29.8224C24.3218 30.0071 23.8388 30.0994 23.2943 30.0994Z" fill="white"/>
		</symbol>
		<symbol viewBox='0 0 40 40' id='MP4-Default'>
			<path d="M7.75 4C7.75 2.20508 9.20508 0.75 11 0.75H27C27.1212 0.75 27.2375 0.798159 27.3232 0.883885L38.1161 11.6768C38.2018 11.7625 38.25 11.8788 38.25 12V36C38.25 37.7949 36.7949 39.25 35 39.25H11C9.20507 39.25 7.75 37.7949 7.75 36V4Z" stroke="#D0D5DD" stroke-width="1.5"/>
			<path d="M27 0.5V8C27 10.2091 28.7909 12 31 12H38.5" stroke="#D0D5DD" stroke-width="1.5"/>
			<rect x="1" y="18" width="29" height="16" rx="2" fill="#155EEF"/>
			<path d="M4.93093 22.7273H6.82724L8.83008 27.6136H8.91531L10.9181 22.7273H12.8145V30H11.323V25.2663H11.2626L9.3805 29.9645H8.36488L6.48278 25.2486H6.42241V30H4.93093V22.7273ZM14.0813 30V22.7273H16.9506C17.5022 22.7273 17.9722 22.8326 18.3604 23.0433C18.7487 23.2517 19.0446 23.5417 19.2482 23.9134C19.4542 24.2827 19.5572 24.7088 19.5572 25.1918C19.5572 25.6747 19.453 26.1009 19.2447 26.4702C19.0363 26.8395 18.7345 27.1271 18.3391 27.3331C17.9461 27.5391 17.4703 27.642 16.9116 27.642H15.0827V26.4098H16.663C16.9589 26.4098 17.2028 26.3589 17.3945 26.2571C17.5887 26.1529 17.7331 26.0097 17.8278 25.8274C17.9248 25.6428 17.9734 25.4309 17.9734 25.1918C17.9734 24.9503 17.9248 24.7396 17.8278 24.5597C17.7331 24.3774 17.5887 24.2365 17.3945 24.1371C17.2004 24.0353 16.9542 23.9844 16.6559 23.9844H15.619V30H14.0813ZM20.4032 28.7216V27.5107L23.4395 22.7273H24.4835V24.4034H23.8656L21.9515 27.4325V27.4893H26.2662V28.7216H20.4032ZM23.894 30V28.3523L23.9224 27.8161V22.7273H25.3642V30H23.894Z" fill="white"/>
		</symbol>
		<symbol viewBox='0 0 40 40' id='PDF-Default'>
			<path d="M7.75 4C7.75 2.20508 9.20508 0.75 11 0.75H27C27.1212 0.75 27.2375 0.798159 27.3232 0.883885L38.1161 11.6768C38.2018 11.7625 38.25 11.8788 38.25 12V36C38.25 37.7949 36.7949 39.25 35 39.25H11C9.20507 39.25 7.75 37.7949 7.75 36V4Z" stroke="#D0D5DD" stroke-width="1.5"/>
			<path d="M27 0.5V8C27 10.2091 28.7909 12 31 12H38.5" stroke="#D0D5DD" stroke-width="1.5"/>
			<rect x="1" y="18" width="26" height="16" rx="2" fill="#D92D20"/>
			<path d="M4.8323 30V22.7273H7.70162C8.25323 22.7273 8.72316 22.8326 9.11142 23.0433C9.49967 23.2517 9.7956 23.5417 9.9992 23.9134C10.2052 24.2827 10.3082 24.7088 10.3082 25.1918C10.3082 25.6747 10.204 26.1009 9.99565 26.4702C9.78732 26.8395 9.48547 27.1271 9.09011 27.3331C8.69712 27.5391 8.22127 27.642 7.66255 27.642H5.83372V26.4098H7.41397C7.7099 26.4098 7.95375 26.3589 8.14551 26.2571C8.33964 26.1529 8.48405 26.0097 8.57875 25.8274C8.67581 25.6428 8.72434 25.4309 8.72434 25.1918C8.72434 24.9503 8.67581 24.7396 8.57875 24.5597C8.48405 24.3774 8.33964 24.2365 8.14551 24.1371C7.95138 24.0353 7.70517 23.9844 7.40687 23.9844H6.36994V30H4.8323ZM13.885 30H11.3069V22.7273H13.9063C14.6379 22.7273 15.2676 22.8729 15.7955 23.1641C16.3235 23.4529 16.7295 23.8684 17.0136 24.4105C17.3 24.9527 17.4433 25.6013 17.4433 26.3565C17.4433 27.1141 17.3 27.7652 17.0136 28.3097C16.7295 28.8542 16.3211 29.272 15.7884 29.5632C15.2581 29.8544 14.6237 30 13.885 30ZM12.8445 28.6825H13.8211C14.2757 28.6825 14.658 28.602 14.9681 28.4411C15.2806 28.2777 15.515 28.0256 15.6713 27.6847C15.8299 27.3414 15.9092 26.8987 15.9092 26.3565C15.9092 25.8191 15.8299 25.38 15.6713 25.0391C15.515 24.6982 15.2818 24.4472 14.9717 24.2862C14.6615 24.1252 14.2792 24.0447 13.8247 24.0447H12.8445V28.6825ZM18.5823 30V22.7273H23.3976V23.995H20.1199V25.728H23.078V26.9957H20.1199V30H18.5823Z" fill="white"/>
		</symbol>
		<symbol viewBox='0 0 40 40' id='PDF-Gray'>
			<mask id="mask0_4916_412083" style="mask-type:alpha" maskUnits="userSpaceOnUse" x="4" y="0" width="32" height="40">
				<path d="M4 4C4 1.79086 5.79086 0 8 0H24L36 12V36C36 38.2091 34.2091 40 32 40H8C5.79086 40 4 38.2091 4 36V4Z" fill="url(#paint0_linear_4916_412083)"/>
			</mask>
			<g mask="url(#mask0_4916_412083)">
				<path d="M4 4C4 1.79086 5.79086 0 8 0H24L36 12V36C36 38.2091 34.2091 40 32 40H8C5.79086 40 4 38.2091 4 36V4Z" fill="#F2F4F7"/>
			</g>
			<path d="M24 0L36 12H28C25.7909 12 24 10.2091 24 8V0Z" fill="#EAECF0"/>
			<path d="M25.0745 25.1947C24.0764 25.1947 22.8274 25.3688 22.4187 25.4301C20.7274 23.6639 20.2462 22.6599 20.138 22.3923C20.2847 22.0154 20.795 20.5837 20.8676 18.7449C20.9033 17.8243 20.7089 17.1364 20.2894 16.7004C19.8707 16.265 19.3638 16.2311 19.2185 16.2311C18.7089 16.2311 17.8539 16.4888 17.8539 18.2146C17.8539 19.7119 18.5521 21.3008 18.745 21.7113C17.7283 24.6717 16.6367 26.6983 16.405 27.1151C12.3195 28.6533 12 30.1406 12 30.5621C12 31.3196 12.5395 31.7718 13.443 31.7718C15.6384 31.7718 17.6418 28.086 17.9731 27.446C19.5323 26.8247 21.6192 26.4399 22.1497 26.3481C23.6715 27.7977 25.4314 28.1845 26.1623 28.1845C26.7122 28.1845 27.9999 28.1845 27.9999 26.8605C28 25.6309 26.4241 25.1947 25.0745 25.1947ZM24.9687 26.0639C26.1545 26.0639 26.4679 26.4561 26.4679 26.6634C26.4679 26.7935 26.4185 27.218 25.7829 27.218C25.213 27.218 24.2289 26.8886 23.2607 26.1739C23.6645 26.1208 24.2619 26.0639 24.9687 26.0639ZM19.1562 17.0737C19.2644 17.0737 19.3355 17.1084 19.3942 17.1898C19.7353 17.663 19.4603 19.2094 19.1256 20.4194C18.8025 19.3818 18.56 17.7898 18.9012 17.2297C18.9678 17.1204 19.0441 17.0737 19.1562 17.0737ZM18.5803 26.3358C19.0097 25.4685 19.4908 24.2045 19.7529 23.4896C20.2774 24.3674 20.9829 25.1825 21.3909 25.6244C20.1205 25.8922 19.1594 26.1598 18.5803 26.3358ZM12.8528 30.6778C12.8245 30.6442 12.8203 30.5735 12.8417 30.4886C12.8863 30.3107 13.2279 29.4288 15.6985 28.3237C15.3447 28.8809 14.7917 29.6771 14.1842 30.2719C13.7565 30.6722 13.4235 30.8752 13.1944 30.8752C13.1124 30.8752 12.9995 30.8528 12.8528 30.6778Z" fill="#344054"/>
			<defs>
				<linearGradient id="paint0_linear_4916_412083" x1="20" y1="0" x2="20" y2="40" gradientUnits="userSpaceOnUse">
					<stop stop-opacity="0.4"/>
					<stop offset="1"/>
				</linearGradient>
			</defs>
		</symbol>
		<symbol viewBox='0 0 40 40' id='PNG-Default'>
			<path d="M7.75 4C7.75 2.20508 9.20508 0.75 11 0.75H27C27.1212 0.75 27.2375 0.798159 27.3232 0.883885L38.1161 11.6768C38.2018 11.7625 38.25 11.8788 38.25 12V36C38.25 37.7949 36.7949 39.25 35 39.25H11C9.20507 39.25 7.75 37.7949 7.75 36V4Z" stroke="#D0D5DD" stroke-width="1.5"/>
			<path d="M27 0.5V8C27 10.2091 28.7909 12 31 12H38.5" stroke="#D0D5DD" stroke-width="1.5"/>
			<rect x="1" y="18" width="28" height="16" rx="2" fill="#1570EF"/>
			<path d="M4.91433 30V22.7273H7.78365C8.33526 22.7273 8.80519 22.8326 9.19345 23.0433C9.58171 23.2517 9.87763 23.5417 10.0812 23.9134C10.2872 24.2827 10.3902 24.7088 10.3902 25.1918C10.3902 25.6747 10.286 26.1009 10.0777 26.4702C9.86935 26.8395 9.5675 27.1271 9.17214 27.3331C8.77915 27.5391 8.3033 27.642 7.74458 27.642H5.91575V26.4098H7.496C7.79193 26.4098 8.03578 26.3589 8.22754 26.2571C8.42167 26.1529 8.56608 26.0097 8.66078 25.8274C8.75784 25.6428 8.80637 25.4309 8.80637 25.1918C8.80637 24.9503 8.75784 24.7396 8.66078 24.5597C8.56608 24.3774 8.42167 24.2365 8.22754 24.1371C8.03341 24.0353 7.7872 23.9844 7.4889 23.9844H6.45197V30H4.91433ZM17.472 22.7273V30H16.1439L12.9798 25.4226H12.9266V30H11.3889V22.7273H12.7384L15.8776 27.3011H15.9415V22.7273H17.472ZM23.5649 25.0781C23.5152 24.9053 23.4453 24.7526 23.3554 24.62C23.2654 24.4851 23.1553 24.3714 23.0251 24.2791C22.8973 24.1844 22.7505 24.1122 22.5848 24.0625C22.4214 24.0128 22.2403 23.9879 22.0415 23.9879C21.6698 23.9879 21.3431 24.0803 21.0613 24.2649C20.782 24.4496 20.5642 24.7183 20.4079 25.071C20.2517 25.4214 20.1736 25.8499 20.1736 26.3565C20.1736 26.8632 20.2505 27.294 20.4044 27.6491C20.5583 28.0043 20.7761 28.2753 21.0578 28.4624C21.3395 28.647 21.6721 28.7393 22.0557 28.7393C22.4037 28.7393 22.7008 28.6778 22.947 28.5547C23.1956 28.4292 23.385 28.2528 23.5152 28.0256C23.6478 27.7983 23.714 27.5296 23.714 27.2195L24.0265 27.2656H22.1515V26.108H25.1949V27.0241C25.1949 27.6634 25.0599 28.2126 24.79 28.6719C24.5202 29.1288 24.1485 29.4815 23.675 29.7301C23.2015 29.9763 22.6594 30.0994 22.0486 30.0994C21.3667 30.0994 20.7678 29.9491 20.2517 29.6484C19.7356 29.3454 19.3331 28.9157 19.0443 28.3594C18.7578 27.8007 18.6146 27.1378 18.6146 26.3707C18.6146 25.7812 18.6998 25.2557 18.8703 24.794C19.0431 24.33 19.2846 23.937 19.5947 23.6151C19.9049 23.2931 20.2659 23.0481 20.6778 22.88C21.0898 22.7119 21.536 22.6278 22.0166 22.6278C22.4285 22.6278 22.8121 22.6882 23.1672 22.8089C23.5223 22.9273 23.8372 23.0954 24.1118 23.3132C24.3888 23.531 24.6148 23.7902 24.79 24.0909C24.9652 24.3892 25.0777 24.7183 25.1274 25.0781H23.5649Z" fill="white"/>
		</symbol>
		<symbol viewBox='0 0 40 40' id='Simple-PDF-Default'>
			<path d="M4.75 4C4.75 2.20508 6.20508 0.75 8 0.75H24C24.1212 0.75 24.2375 0.798159 24.3232 0.883885L35.1161 11.6768C35.2018 11.7625 35.25 11.8788 35.25 12V36C35.25 37.7949 33.7949 39.25 32 39.25H8C6.20507 39.25 4.75 37.7949 4.75 36V4Z" stroke="#D0D5DD" stroke-width="1.5"/>
			<path d="M24 0.5V8C24 10.2091 25.7909 12 28 12H35.5" stroke="#D0D5DD" stroke-width="1.5"/>
			<path d="M25.7088 25.344C24.586 25.344 23.1808 25.5399 22.7211 25.6088C20.8184 23.6218 20.277 22.4924 20.1553 22.1913C20.3203 21.7673 20.8944 20.1566 20.976 18.088C21.0162 17.0523 20.7975 16.2785 20.3256 15.7879C19.8545 15.2981 19.2843 15.26 19.1208 15.26C18.5475 15.26 17.5857 15.5499 17.5857 17.4914C17.5857 19.1759 18.3711 20.9633 18.5882 21.4252C17.4443 24.7556 16.2163 27.0356 15.9556 27.5044C11.3594 29.2349 11 30.9081 11 31.3823C11 32.2345 11.6069 32.7432 12.6234 32.7432C15.0932 32.7432 17.347 28.5967 17.7197 27.8767C19.4738 27.1778 21.8216 26.7449 22.4184 26.6416C24.1304 28.2724 26.1104 28.7075 26.9326 28.7075C27.5512 28.7075 28.9999 28.7075 28.9999 27.218C29 25.8348 27.2271 25.344 25.7088 25.344ZM25.5898 26.3219C26.9238 26.3219 27.2764 26.7631 27.2764 26.9963C27.2764 27.1427 27.2208 27.6203 26.5058 27.6203C25.8646 27.6203 24.7575 27.2497 23.6683 26.4456C24.1225 26.3859 24.7947 26.3219 25.5898 26.3219ZM19.0508 16.2079C19.1724 16.2079 19.2525 16.2469 19.3185 16.3385C19.7022 16.8709 19.3928 18.6105 19.0163 19.9718C18.6528 18.8046 18.38 17.0135 18.7638 16.3834C18.8388 16.2604 18.9246 16.2079 19.0508 16.2079ZM18.4029 26.6277C18.8859 25.652 19.4272 24.23 19.722 23.4257C20.3121 24.4134 21.1057 25.3303 21.5647 25.8275C20.1356 26.1288 19.0543 26.4298 18.4029 26.6277ZM11.9594 31.5125C11.9276 31.4748 11.9229 31.3952 11.9469 31.2997C11.9971 31.0995 12.3814 30.1074 15.1608 28.8641C14.7628 29.491 14.1407 30.3867 13.4572 31.0558C12.9761 31.5062 12.6014 31.7345 12.3437 31.7345C12.2515 31.7345 12.1244 31.7094 11.9594 31.5125Z" fill="#D92D20"/>
		</symbol>
		<symbol viewBox='0 0 40 40' id='TXT-Default'>
			<path d="M7.75 4C7.75 2.20508 9.20508 0.75 11 0.75H27C27.1212 0.75 27.2375 0.798159 27.3232 0.883885L38.1161 11.6768C38.2018 11.7625 38.25 11.8788 38.25 12V36C38.25 37.7949 36.7949 39.25 35 39.25H11C9.20507 39.25 7.75 37.7949 7.75 36V4Z" stroke="#D0D5DD" stroke-width="1.5"/>
			<path d="M27 0.5V8C27 10.2091 28.7909 12 31 12H38.5" stroke="#D0D5DD" stroke-width="1.5"/>
			<rect x="1" y="18" width="27" height="16" rx="2" fill="#475467"/>
			<path d="M4.60121 23.995V22.7273H10.5742V23.995H8.34766V30H6.82777V23.995H4.60121ZM12.9996 22.7273L14.4663 25.206H14.5231L15.9968 22.7273H17.7333L15.5138 26.3636L17.783 30H16.0146L14.5231 27.5178H14.4663L12.9748 30H11.2134L13.4897 26.3636L11.256 22.7273H12.9996ZM18.4293 23.995V22.7273H24.4023V23.995H22.1758V30H20.6559V23.995H18.4293Z" fill="white"/>
		</symbol>
	</defs>
</svg>